
        <svg xmlns="http://www.w3.org/2000/svg" xmlns:xlink="http://www.w3.org/1999/xlink" version="1.1" width="3187.5" 
        height="1341.822809386351" viewBox="0 0 3187.5 1341.822809386351">
			
			<g transform="scale(9.375) translate(10, 10)">
				<defs id="SvgjsDefs1249"></defs><g id="SvgjsG1250" featureKey="symbolFeature-0" transform="matrix(0.7513630033975054,0,0,0.7513630033975054,-25.08873824533534,-13.56392885485702)" fill="#265a5c"><g xmlns="http://www.w3.org/2000/svg"><path d="M166,102.2c-0.9-3-2.3-5.4-3.4-7.6c-0.3-0.6-0.5-1.1-0.8-1.6l-0.9-1.8l-1.8-3.5c-1.2-2.3-2.3-4.5-3.1-6.6   c-0.5-1.3-0.9-2.6-1.1-3.9c-0.2-1.3-0.3-2.7-0.3-4.2c0-2.9,0.2-6.1,0.2-9.5c0-1.7-0.2-3.4-0.5-5.2c-0.1-0.9-0.4-1.7-0.6-2.5   l-0.7-2.4c-0.5-1.6-1.1-3.2-1.7-4.8c-0.7-1.5-1.3-3.1-2.2-4.5c-3.3-5.9-7.8-11.1-13.1-15.2c-5.3-4.1-11.3-7.3-17.6-9.4   c-3-1-5.9-1.3-8-1.2c-2.1,0.2-3.5,0.8-3.6,1.7c-0.2,1.9,4.1,3.9,9.5,5.7c11.3,3.8,21.4,11.2,27,21.5c0.8,1.2,1.3,2.6,1.9,3.9   c0.6,1.3,1,2.7,1.5,4.1l0.6,2.1c0.2,0.7,0.4,1.4,0.5,2.1c0.2,1.3,0.3,2.7,0.4,4.2c0.1,2.9-0.2,6-0.2,9.4c0,1.7,0.1,3.4,0.4,5.2   c0.3,1.8,0.8,3.6,1.4,5.2c1,2.7,2.3,5.1,3.5,7.4l1.8,3.4l0.8,1.6c0.3,0.6,0.6,1.3,0.9,1.8c1.2,2.3,2.4,4.4,3,6.4   c0.3,1,0.5,1.9,0.4,2.5c-0.1,0.7-0.3,1-0.7,1.5c-1,1.1-2.5,1.4-5.2,1.5c-0.3,0-0.8,0.1-1.2,0.1c-0.4,0.1-1.2,0.2-1.7,0.4   c-1.1,0.5-2.1,1.2-2.8,2.2c-0.3,0.5-0.5,1.1-0.7,1.7c-0.1,0.6-0.2,1.2-0.2,1.7c0,0.5,0,0.9,0,1.3c0,0.4,0.1,0.8,0.1,1.2   c0.4,3,1.4,5.4,1.7,7.7c0.1,0.5,0.2,1.1,0.2,1.6c0,0.5,0,0.9,0,1.5c-0.1,1.1-0.3,2.3-0.6,3.5c-0.5,2.4-1.3,5.1-1.5,8   c0,0.7,0,1.5,0,2.2c0,0.6,0,1.2,0,1.7c0,1.1-0.2,2.2-0.5,3.1c-0.3,0.9-0.7,1.5-1.4,2c-0.7,0.5-1.7,1-2.8,1.3   c-2.3,0.6-4.8,1-7.4,1.5c-1.3,0.3-2.6,0.5-4,1.1c-1.4,0.5-2.9,1.4-3.9,2.7c-1,1.4-1.4,3-1.6,4.4c-0.1,1.4-0.1,2.8-0.1,4.1   c0.2,5.1,0.4,10.3,0.6,15.4v0c0.1,2.7,1.6,2.7,1.7,0v0c0.2-5.1,0.4-10.3,0.6-15.4c0-1.3,0.1-2.5,0.3-3.6c0.2-1.1,0.6-2.1,1.1-2.8   c1.1-1.3,3.5-1.7,5.9-2.1c2.5-0.3,5.1-0.5,7.8-1.2c1.4-0.3,2.8-0.8,4.3-1.7c1.4-0.9,2.6-2.4,3.2-4c0.6-1.5,0.9-3.1,1-4.5   c0.1-0.7,0.1-1.4,0.1-2.1c0-0.6,0-1.1,0.1-1.7c0.2-2.2,1-4.5,1.6-7.1c0.3-1.3,0.7-2.7,0.8-4.1c0.1-0.7,0.2-1.5,0.1-2.3   c0-0.8-0.1-1.5-0.2-2.3c-0.4-2.9-1.3-5.3-1.5-7.5c0-0.3-0.1-0.5-0.1-0.8l0-0.6c0-0.1,0-0.2,0.1-0.2c0,0,0.1-0.1,0.1-0.1l0.9-0.1   c1.2-0.1,2.8-0.1,4.4-0.5c0.4-0.1,0.8-0.2,1.3-0.4l1.2-0.6c0.8-0.5,1.5-0.9,2.2-1.7c1.4-1.3,2.4-3.4,2.6-5.3   C166.8,105.4,166.4,103.7,166,102.2z"></path><path d="M105.1,19L105.1,19c-9.3-1.6-19-1.2-28.3,1.4c-9.2,2.7-17.9,7.4-25.1,14c-7.1,6.7-12.5,15.3-15.5,24.7   c-3,9.3-3.7,19.6-1.6,29.3c2.4,11.9,9,22.7,17.2,31c3.9,4.1,7.1,8.1,8.3,12.8c1.3,4.8,1,10.2-0.2,15.3c-1.1,4.9-1.5,9.3,0.2,10.1   c1.6,0.7,4.9-2.9,6.2-8.6c1.4-5.9,1.8-12.3,0.1-18.5c-0.8-3.2-2.3-6.1-4.1-8.7c-1.8-2.6-3.8-4.8-5.8-6.9c-1-1.1-1.9-2.1-2.8-3.1   c-0.9-1-1.7-2.1-2.6-3.1c-1.6-2.2-3.1-4.4-4.4-6.7c-1.4-2.3-2.4-4.8-3.5-7.3c-0.9-2.5-1.8-5.1-2.3-7.7c-1.8-8.6-1.4-17.6,1.1-26.1   c2.5-8.5,7.1-16.3,13.3-22.7c6.3-6.3,14-11.1,22.5-14.2c8.5-3,17.7-4.1,26.9-3.4h0c1.2,0.1,1.9-0.2,1.9-0.6   C106.8,19.6,106.3,19.2,105.1,19z"></path><path d="M98.9,36.1c0-1-0.8-2-2.5-3c-0.1-0.1-1.6-0.1-1.7,0c-1.6,1-2.5,2-2.5,3v1.8c0,0.1,1.5,0.3,3.3,0.3c1.8,0,3.3-0.1,3.3-0.3   V36.1z"></path><path d="M84.4,40.5L84.4,40.5c1.7-0.7,3-1.4,2.9-1.5l-0.7-1.7c-0.4-0.9-1.5-1.5-3.4-1.8c-0.1,0-1.5,0.6-1.6,0.7   c-1.1,1.5-1.5,2.8-1.1,3.7l0.7,1.7C81.3,41.6,82.7,41.2,84.4,40.5z"></path><path d="M109.9,41.5l0.7-1.7c0.4-0.9,0-2.1-1.1-3.7c-0.1-0.1-1.4-0.7-1.6-0.7c-1.9,0.3-3,0.9-3.4,1.8l-0.7,1.7   c-0.1,0.1,1.3,0.8,2.9,1.5C108.4,41.2,109.8,41.6,109.9,41.5z"></path><path d="M118.8,42.5c-1.9-0.5-3.1-0.3-3.8,0.4l-1.3,1.3c-0.1,0.1,0.9,1.2,2.2,2.5h0c1.3,1.3,2.4,2.2,2.5,2.1l1.3-1.3   c0.7-0.7,0.8-2,0.3-3.8C119.9,43.6,118.9,42.5,118.8,42.5z"></path><path d="M77.4,44.2l-1.3-1.3c-0.7-0.7-2-0.8-3.8-0.4c-0.1,0-1.2,1.1-1.2,1.2c-0.5,1.8-0.4,3.1,0.3,3.8l1.3,1.3   c0.1,0.1,1.2-0.9,2.5-2.1C76.6,45.4,77.5,44.3,77.4,44.2z"></path><path d="M126.2,53.1c-1.5-1.1-2.8-1.5-3.7-1.1l-1.7,0.7c-0.1,0.1,0.3,1.5,1.1,3.1c0.7,1.7,1.4,3,1.5,2.9l1.7-0.7   c0.9-0.4,1.5-1.5,1.7-3.4C126.9,54.6,126.3,53.2,126.2,53.1z"></path><path d="M68.5,52c-0.9-0.4-2.1,0-3.7,1.1c-0.1,0.1-0.7,1.4-0.7,1.6c0.3,1.9,0.8,3,1.7,3.4l1.7,0.7c0.1,0.1,0.8-1.3,1.5-2.9   c0.7-1.7,1.2-3.1,1.1-3.1L68.5,52z"></path><path d="M117,57.2l-0.6-1.4l-0.8-1.3c-0.5-0.9-1.1-1.7-1.7-2.5c-1.3-1.6-2.8-2.9-4.5-4.1c-3.3-2.3-7.3-3.6-11.2-3.9   c-3.9-0.3-7.9,0.2-11.5,1.7c-3.6,1.4-7,3.7-9.4,6.9c-2.5,3.1-3.8,7.1-4,10.9c-0.2,3.9,0.7,7.5,1.9,10.9c2.4,6.7,6,12.6,8.6,18.8v0   c0.3,0.6,0.6,0.9,0.9,1c-0.3,0-0.5,0.1-0.5,0.3c-0.5,1.8-0.6,3.8-0.2,5.8c0.4,2,1.5,4,3,5.7c1.6,1.6,3.7,2.7,5.9,3.2   c2.2,0.5,4.6,0.4,6.8-0.3c2.7-0.9,5.1-2.6,6.8-5c1.7-2.3,2.4-5.1,2.6-7.7c0-0.5-0.2-0.9-0.5-1.2c0,0,0,0,0,0   c0.3-0.4,0.6-0.9,0.8-1.3c0.1-0.3,0.2-0.4,0.2-0.6l0.2-0.5l1-3.1c0.6-1.9,1.3-3.7,2.2-5.7c1.6-3.8,3.4-7.8,4.5-12.3   c0.6-2.2,0.9-4.6,0.9-7.1c0-1.2-0.2-2.5-0.4-3.7C117.8,59.6,117.6,58.3,117,57.2z M85.1,94.1C85.1,94.1,85.1,94.1,85.1,94.1   C85.1,94.1,85.1,94.1,85.1,94.1C85.1,94.1,85.1,94.1,85.1,94.1z M97.8,102.6c-2.3,0.8-5,0.5-7.2-0.7c-1.9-1.1-3.4-3.2-4.2-5.8   c1.3,0.9,3.5,1.5,6,1.5h6.3l3.2,0c0.2,0,0.3,0,0.5,0C101.8,99.9,100.1,101.8,97.8,102.6z M111.2,70c-0.9,3.7-2.6,7.4-4.2,11.3   c-0.8,1.9-1.6,4-2.3,6.1l-1,2.9l-0.1,0.4c0.3,0-0.8,0.1-1.8,0.1l-2.9,0c0.1-2.3,0.2-4.6,0.5-6.8c0.3-2.3,0.6-4.6,1-7   c0.4-2.4,0.8-4.9,1.1-7.5c0-0.3-1.3-1-1.5-0.7c-1.4,1.5-2.7,3.2-3.8,5c-1.1-2-2.7-3.7-5.1-5.1c-0.2-0.1-1.5,0.5-1.5,0.7v0   c-0.5,2.9-0.2,5.4,0.9,7.6l1.9,4c0.1,0.1,0.4,0.1,0.9,0c-0.2,0.7-0.3,1.4-0.4,2c-0.4,2.6-0.5,5.2-0.6,7.7c-3.1,0-5.7,0.9-6.7,2.2   c0-0.1,0-0.3-0.1-0.5v0c-2-6.7-4.9-13-6.5-19.4c-0.8-3.2-1.3-6.4-0.9-9.4c0.4-3,1.6-5.8,3.5-7.9c3.8-4.4,10.3-6.4,16.1-5.7   c2.9,0.3,5.7,1.4,8.1,3c1.2,0.8,2.2,1.8,3.1,2.9c0.4,0.6,0.9,1.1,1.2,1.7l0.5,0.9l0.4,0.9c0.4,0.7,0.5,1.6,0.7,2.4   c0.1,0.8,0.3,1.7,0.2,2.5C111.9,66.3,111.7,68.1,111.2,70z"></path></g></g><g id="SvgjsG1251" featureKey="nameFeature-0" transform="matrix(1.4775133830324263,0,0,1.4775133830324263,118.22698563124096,16.73793368391661)" fill="#111111"><path d="M11.68 19.64 c4.48 0 10.44 2.68 10.44 10.16 c0 7.52 -5.96 10.6 -10.48 10.6 c-4.48 0 -10.44 -3.08 -10.44 -10.28 c0 -7.8 5.96 -10.48 10.48 -10.48 z M14.56 31.64 c0 -6.2 -1.28 -9.92 -3.36 -9.92 c-1.76 0 -2.4 2.8 -2.4 6.72 c0 6.04 1.28 9.92 3.36 9.92 c1.88 0 2.4 -2.84 2.4 -6.72 z M46.8 36.48 c0 1 1.08 1.32 2.68 1.48 l0 2.04 c-4.2 -0.12 -8.28 -0.12 -12.48 0 l0 -2.04 c1.52 -0.04 2.64 -0.48 2.64 -1.48 l0 -9.44 c0 -2.48 0.12 -4.24 -1.68 -4.24 c-2.08 0 -3.96 3.48 -4.32 4.6 l0 9.08 c0 1 1.08 1.44 2.68 1.48 l0 2.04 c-4.16 -0.12 -8.28 -0.12 -12.44 0 l0 -2.04 c1.48 -0.16 2.64 -0.48 2.64 -1.48 l0 -10.12 c0 -1.64 -1.12 -1.88 -2.6 -1.6 l0 -2.04 c4.88 -1.08 7.04 -3.4 8.32 -3.4 c1.12 0 1.6 0.76 1.4 2.08 l-0.36 3 c1.08 -1.64 3.12 -4.8 7.08 -4.8 c2.92 0 6.44 1.28 6.44 7.04 l0 9.84 z M69.2 26.64 c5.36 1.16 7.2 3.44 7.2 6.48 c0 4.56 -3.96 6.88 -12.04 6.88 l-13.28 0 l0 -2.04 c2.32 -0.16 3 -0.44 3 -1.44 l0 -18.2 c0 -0.88 -0.84 -1.04 -2.6 -1.16 l0 -2 c4.28 0.16 8.36 0 10.12 0 c9.48 0 12.2 2.8 12.2 6.4 c0 1.96 -1.32 4.12 -4.6 5.08 z M61.56 17.2 l0 9.12 c4.04 -0.8 5.48 -2 5.48 -4.76 s-1.04 -4.4 -3.88 -4.4 c-0.68 0 -1.12 0 -1.6 0.04 z M64.4 37.76 c2.6 0 4.56 -1.12 4.56 -4.76 c0 -3.24 -1.24 -4.92 -5.36 -4.92 l-2.04 0.4 l0 7.8 c0 1 0.12 1.48 1.8 1.48 l1.04 0 z M87.2 34.4 c0 1.56 1.12 1.84 2.68 1.72 l0 2 c-4.52 1 -7.2 2.44 -8.2 2.44 c-1.12 0 -1.48 -0.48 -1.48 -1.72 l0 -19.44 c0 -1.64 -1.12 -1.92 -2.6 -1.64 l0 -2 c4.88 -1.12 6.88 -3.4 8.24 -3.4 c1.08 0 1.36 0.6 1.36 1.76 l0 20.28 z M101.96000000000001 19.64 c4.48 0 10.44 2.68 10.44 10.16 c0 7.52 -5.96 10.6 -10.48 10.6 c-4.48 0 -10.44 -3.08 -10.44 -10.28 c0 -7.8 5.96 -10.48 10.48 -10.48 z M104.84 31.64 c0 -6.2 -1.28 -9.92 -3.36 -9.92 c-1.76 0 -2.4 2.8 -2.4 6.72 c0 6.04 1.28 9.92 3.36 9.92 c1.88 0 2.4 -2.84 2.4 -6.72 z M134.35999999999999 19.68 c1.36 0 2.2 0.76 2.2 2.52 c0 0.92 0.12 2.56 -1.28 2.56 c-0.52 0 -0.96 -0.24 -1.8 -0.24 c-0.2 0 -0.16 0.16 -0.12 0.32 c0.08 0.36 0.48 0.96 0.48 2.2 c0 4.76 -4.12 6.88 -9.36 6.88 c-2.48 0 -3.76 -0.56 -4.28 -0.56 c-0.24 0 -0.48 0.16 -0.48 0.6 c0 0.6 0.4 1.04 2.16 1.28 l4 0.56 c6.08 0.84 9.24 2.04 9.24 6.16 c0 3.88 -4.8 6.72 -10.88 6.72 c-5.28 0 -9.44 -1.72 -9.44 -4.96 c0 -2.16 1.6 -3.36 3.72 -3.36 c1.24 0 2.76 0.52 2.76 2.04 c0 1.44 -0.4 1.44 -0.4 2.48 c0 0.8 0.84 1.88 3.52 1.88 c2.04 0 4.88 -0.8 4.88 -3.68 c0 -0.8 -0.44 -1.64 -2.24 -2 l-8.76 -1.72 c-2.28 -0.4 -3.48 -1.92 -3.48 -3.8 c0 -1.56 1.04 -3.12 3.4 -3.4 c-1.72 -0.76 -3.08 -2.84 -3.08 -5.12 c0 -4.76 4.16 -7.4 9.32 -7.4 c3.36 0 4.96 0.96 6.68 2.36 c0.52 -1.44 1.56 -2.32 3.24 -2.32 z M124.44 31.8 c2.04 0 2.4 -2.44 2.4 -4.84 c0 -2.16 -0.28 -5.24 -2.4 -5.24 c-2.16 0 -2.4 3.08 -2.4 5.24 c0 2.4 0.32 4.84 2.4 4.84 z"></path></g>
			</g>
		</svg>
	